HIERARCHY
ROOT m_avg_root
{
	OFFSET 0.000000 0.000000 0.000000
	CHANNELS 6 Xposition Yposition Zposition Xrotation Yrotation Zrotation
	JOINT m_avg_Pelvis
	{
		OFFSET -0.217368 97.272385 2.858379
		CHANNELS 6 Xposition Yposition Zposition Xrotation Yrotation Zrotation
		JOINT m_avg_L_Hip
		{
			OFFSET 5.858135 -8.228004 -1.766408
			CHANNELS 6 Xposition Yposition Zposition Xrotation Yrotation Zrotation
			JOINT m_avg_L_Knee
			{
				OFFSET 4.345143 -38.646946 0.803700
				CHANNELS 6 Xposition Yposition Zposition Xrotation Yrotation Zrotation
				JOINT m_avg_L_Ankle
				{
					OFFSET -1.479033 -42.687439 -3.742799
					CHANNELS 6 Xposition Yposition Zposition Xrotation Yrotation Zrotation
					JOINT m_avg_L_Foot
					{
						OFFSET 4.105436 -6.028594 12.204242
						CHANNELS 6 Xposition Yposition Zposition Xrotation Yrotation Zrotation
						End Site
						{
							OFFSET 0.000000 14.217667 0.000000
						}
					}
				}
			}
		}
		JOINT m_avg_R_Hip
		{
			OFFSET -6.030972 -9.051331 -1.354253
			CHANNELS 6 Xposition Yposition Zposition Xrotation Yrotation Zrotation
			JOINT m_avg_R_Knee
			{
				OFFSET -4.325663 -38.368786 -0.484305
				CHANNELS 6 Xposition Yposition Zposition Xrotation Yrotation Zrotation
				JOINT m_avg_R_Ankle
				{
					OFFSET 1.905554 -42.004559 -3.456167
					CHANNELS 6 Xposition Yposition Zposition Xrotation Yrotation Zrotation
					JOINT m_avg_R_Foot
					{
						OFFSET -3.483987 -6.210555 13.032329
						CHANNELS 6 Xposition Yposition Zposition Xrotation Yrotation Zrotation
						End Site
						{
							OFFSET 0.000000 14.850951 0.000000
						}
					}
				}
			}
		}
		JOINT m_avg_Spine1
		{
			OFFSET 0.443945 12.440353 -3.838522
			CHANNELS 6 Xposition Yposition Zposition Xrotation Yrotation Zrotation
			JOINT m_avg_Spine2
			{
				OFFSET 0.448844 13.795639 2.682033
				CHANNELS 6 Xposition Yposition Zposition Xrotation Yrotation Zrotation
				JOINT m_avg_Spine3
				{
					OFFSET -0.226459 5.603241 0.285504
					CHANNELS 6 Xposition Yposition Zposition Xrotation Yrotation Zrotation
					JOINT m_avg_Neck
					{
						OFFSET -1.339018 21.163559 -3.346758
						CHANNELS 6 Xposition Yposition Zposition Xrotation Yrotation Zrotation
						JOINT m_avg_Head
						{
							OFFSET 1.011321 8.893738 5.040986
							CHANNELS 6 Xposition Yposition Zposition Xrotation Yrotation Zrotation
							End Site
							{
								OFFSET 0.000000 10.272919 0.000000
							}
						}
					}
					JOINT m_avg_L_Collar
					{
						OFFSET 7.170248 11.399979 -1.889817
						CHANNELS 6 Xposition Yposition Zposition Xrotation Yrotation Zrotation
						JOINT m_avg_L_Shoulder
						{
							OFFSET 12.292139 4.520508 -1.904600
							CHANNELS 6 Xposition Yposition Zposition Xrotation Yrotation Zrotation
							JOINT m_avg_L_Elbow
							{
								OFFSET 25.533190 -1.564911 -2.294648
								CHANNELS 6 Xposition Yposition Zposition Xrotation Yrotation Zrotation
								JOINT m_avg_L_Wrist
								{
									OFFSET 26.570927 1.269821 -0.737473
									CHANNELS 6 Xposition Yposition Zposition Xrotation Yrotation Zrotation
									JOINT m_avg_L_Hand
									{
										OFFSET 8.669052 -1.063614 -1.559429
										CHANNELS 6 Xposition Yposition Zposition Xrotation Yrotation Zrotation
										End Site
										{
											OFFSET 0.000000 8.872177 0.000000
										}
									}
								}
							}
						}
					}
					JOINT m_avg_R_Collar
					{
						OFFSET -8.295365 11.247238 -2.370739
						CHANNELS 6 Xposition Yposition Zposition Xrotation Yrotation Zrotation
						JOINT m_avg_R_Shoulder
						{
							OFFSET -11.322830 4.685318 -0.847207
							CHANNELS 6 Xposition Yposition Zposition Xrotation Yrotation Zrotation
							JOINT m_avg_R_Elbow
							{
								OFFSET -26.012751 -1.436920 -3.126873
								CHANNELS 6 Xposition Yposition Zposition Xrotation Yrotation Zrotation
								JOINT m_avg_R_Wrist
								{
									OFFSET -26.910835 0.679367 -0.602676
									CHANNELS 6 Xposition Yposition Zposition Xrotation Yrotation Zrotation
									JOINT m_avg_R_Hand
									{
										OFFSET -8.875381 -0.865158 -1.010708
										CHANNELS 6 Xposition Yposition Zposition Xrotation Yrotation Zrotation
										End Site
										{
											OFFSET 0.000000 8.974548 0.000000
										}
									}
								}
							}
						}
					}
				}
			}
		}
	}
}
MOTION
Frames: 6
Frame Time: 0.041667
0.000000 0.000000 0.000000 -0.000009 -0.000009 -90.000207 30.206335 256.643799 -1.533167 109.862042 3.666003 90.852697 5.858134 -8.228004 -1.766398 -4.494995 0.215308 0.582677 4.345156 -38.646954 0.803730 10.018656 -3.757196 -1.614986 -1.479031 -42.687431 -3.742771 0.745763 10.113929 -7.455015 4.105436 -6.028595 12.204271 -12.612840 3.009009 13.316277 -6.030976 -9.051338 -1.354246 -4.488253 -3.263950 -2.474910 -4.325665 -38.368793 -0.484269 15.600806 3.650971 -0.713640 1.905560 -42.004559 -3.456157 -2.208311 -13.562813 11.891622 -3.484024 -6.210550 13.032315 -5.512796 1.978726 -18.828065 0.443944 12.440356 -3.838487 5.612079 -0.361064 3.772278 0.448843 13.795638 2.682016 -2.354276 -0.615905 -2.270923 -0.226468 5.603233 0.285493 3.678218 1.093450 -0.420266 -1.339020 21.163555 -3.346760 -7.361524 -13.550244 -0.621724 1.011324 8.893739 5.040959 -4.172122 2.027825 0.374197 7.170246 11.399981 -1.889815 -1.390793 -0.976016 -2.031707 12.292130 4.520520 -1.904581 0.657301 -12.822422 -62.319186 25.533195 -1.564888 -2.294663 43.600349 -54.335412 47.784478 26.570946 1.269826 -0.737469 -21.906795 -8.587723 4.991188 8.669044 -1.063597 -1.559430 -0.000000 0.000001 -0.000000 -8.295363 11.247243 -2.370734 -10.216036 15.216330 -18.838519 -11.322835 4.685335 -0.847219 -28.814208 25.839705 14.737050 -26.012749 -1.436907 -3.126857 -1.779186 62.056012 -35.900601 -26.910828 0.679383 -0.602676 1.999655 5.429616 -12.730028 -8.875380 -0.865172 -1.010711 0.000000 0.000000 -0.000001 
0.000000 0.000000 0.000000 -0.000009 -0.000009 -90.000207 29.950911 254.714355 -2.576696 117.190419 3.767009 90.257774 5.858119 -8.227999 -1.766424 -4.628161 0.236141 0.951374 4.345153 -38.646950 0.803702 8.075336 -3.853165 -1.604389 -1.479034 -42.687447 -3.742801 1.852261 10.649525 -8.316275 4.105438 -6.028604 12.204251 -11.579070 2.675000 13.636072 -6.030985 -9.051334 -1.354260 -3.783560 -3.541539 -2.972062 -4.325667 -38.368774 -0.484317 12.160536 3.802412 -0.587488 1.905545 -42.004566 -3.456144 -1.024173 -14.059693 12.557233 -3.483967 -6.210552 13.032338 -5.134019 2.911161 -18.929127 0.443938 12.440348 -3.838526 5.000443 0.010534 3.602445 0.448844 13.795642 2.682028 -2.951681 -0.597677 -2.038102 -0.226469 5.603236 0.285499 3.398682 1.342741 -0.290483 -1.339011 21.163567 -3.346735 -8.436353 -11.040775 -1.412143 1.011301 8.893730 5.040991 -5.227747 2.543173 0.153510 7.170249 11.400002 -1.889800 -2.917841 1.605816 0.006017 12.292153 4.520504 -1.904592 -2.159862 -7.833606 -53.175919 25.533192 -1.564896 -2.294632 27.180219 -55.697017 39.855981 26.570919 1.269809 -0.737470 -21.150731 -8.809038 6.037223 8.669066 -1.063598 -1.559427 0.000004 0.000000 0.000000 -8.295368 11.247253 -2.370738 -10.905463 12.691613 -17.916008 -11.322830 4.685332 -0.847208 -26.855662 23.450030 14.627082 -26.012747 -1.436895 -3.126897 -2.049110 63.784357 -36.300126 -26.910835 0.679367 -0.602676 1.340590 5.592063 -13.146927 -8.875390 -0.865158 -1.010698 0.000000 0.000000 -0.000003 
0.000000 0.000000 0.000000 -0.000009 -0.000009 -90.000207 32.407299 264.264404 -3.407593 116.932224 0.965159 91.319199 5.858126 -8.228008 -1.766404 -5.212722 -0.523015 1.409833 4.345153 -38.646950 0.803700 7.878899 -4.378047 -1.624398 -1.479015 -42.687420 -3.742791 2.194917 10.278914 -9.363588 4.105422 -6.028615 12.204263 -10.484783 2.680978 14.104481 -6.030980 -9.051317 -1.354235 -1.847523 -3.991128 -3.253903 -4.325654 -38.368786 -0.484348 10.748885 3.308190 -0.541080 1.905560 -42.004555 -3.456171 -1.511454 -14.248449 12.170523 -3.484024 -6.210549 13.032321 -3.350719 3.350342 -18.079027 0.443934 12.440344 -3.838507 5.389251 0.602522 3.682711 0.448833 13.795650 2.682024 -3.309448 0.617629 -2.753298 -0.226462 5.603239 0.285528 2.747928 2.205955 -0.666393 -1.339015 21.163548 -3.346793 -11.396236 -12.846365 -1.606636 1.011318 8.893740 5.040999 -1.840248 0.475934 0.031588 7.170249 11.399965 -1.889858 -3.423889 1.044760 -4.044229 12.292141 4.520516 -1.904612 -3.164964 -8.810895 -52.236713 25.533186 -1.564888 -2.294657 27.741450 -60.247821 48.586960 26.570934 1.269801 -0.737477 -18.537251 -8.457247 7.084563 8.669037 -1.063614 -1.559433 -0.000001 0.000000 0.000000 -8.295356 11.247231 -2.370779 -9.754013 15.704201 -14.256188 -11.322823 4.685338 -0.847176 -26.474488 24.508713 14.087552 -26.012745 -1.436921 -3.126864 -12.173568 55.699974 -25.965159 -26.910828 0.679380 -0.602667 3.256426 4.353829 -13.141000 -8.875390 -0.865169 -1.010705 -0.000001 0.000000 0.000000 
0.000000 0.000000 0.000000 -0.000009 -0.000009 -90.000207 31.911818 260.147217 -4.225906 120.456506 2.400606 90.653160 5.858155 -8.227996 -1.766426 -6.654296 -0.347864 2.078488 4.345135 -38.646950 0.803666 14.998271 -4.591640 -1.844295 -1.479037 -42.687454 -3.742831 1.109057 10.416483 -8.527591 4.105448 -6.028594 12.204246 -12.673985 3.981284 13.723693 -6.030946 -9.051325 -1.354258 -5.122979 -3.043614 -1.906333 -4.325668 -38.368790 -0.484330 16.748421 3.155168 -0.140450 1.905548 -42.004562 -3.456203 -2.540451 -13.736499 11.231422 -3.483980 -6.210554 13.032326 -5.902337 3.494093 -18.063246 0.443955 12.440352 -3.838545 6.665527 0.468454 2.361384 0.448853 13.795657 2.682052 -3.332501 -0.379931 -2.042919 -0.226472 5.603238 0.285498 3.086359 1.061783 -0.201204 -1.339022 21.163540 -3.346729 -9.547390 -6.771905 -1.829301 1.011304 8.893731 5.040994 -3.444957 2.259645 0.760529 7.170237 11.399962 -1.889804 -4.703109 0.622630 0.131662 12.292138 4.520505 -1.904584 -9.624198 -8.869662 -45.567832 25.533178 -1.564888 -2.294658 32.498955 -66.851802 62.053061 26.570934 1.269818 -0.737480 -18.597394 -8.926384 7.971805 8.669044 -1.063614 -1.559442 0.000000 -0.000003 0.000000 -8.295380 11.247221 -2.370739 -10.021454 9.884149 -12.184438 -11.322840 4.685329 -0.847234 -22.285787 19.081703 20.895751 -26.012754 -1.436927 -3.126867 3.814474 65.876109 -40.473560 -26.910826 0.679351 -0.602673 -1.649552 5.671503 -10.329441 -8.875379 -0.865173 -1.010707 -0.000002 0.000000 0.000002 
0.000000 0.000000 0.000000 -0.000009 -0.000009 -90.000207 31.607468 255.969650 -4.682579 121.488138 3.226595 90.308816 5.858148 -8.228009 -1.766380 -6.343609 0.244807 2.367851 4.345130 -38.646946 0.803694 15.534089 -4.356062 -1.924856 -1.479022 -42.687431 -3.742815 1.231768 11.009275 -7.922104 4.105434 -6.028610 12.204273 -13.106440 4.378167 13.057078 -6.030982 -9.051341 -1.354250 -5.715658 -2.622234 -0.914057 -4.325660 -38.368786 -0.484310 17.374548 3.176267 -0.009913 1.905543 -42.004555 -3.456151 -2.485648 -13.415588 10.920175 -3.483961 -6.210563 13.032355 -7.284039 3.682964 -17.854968 0.443944 12.440337 -3.838510 6.801324 0.338151 1.294539 0.448872 13.795634 2.682043 -3.090285 -1.509751 -1.252816 -0.226477 5.603262 0.285483 3.482221 0.054840 0.594360 -1.339015 21.163549 -3.346755 -7.059097 -2.055127 -2.579578 1.011326 8.893716 5.041007 -5.037694 3.451159 1.853365 7.170250 11.399968 -1.889811 -6.028045 -0.581949 4.541823 12.292125 4.520514 -1.904614 -15.541252 -10.947704 -38.391110 25.533205 -1.564899 -2.294644 17.522446 -65.383167 51.659145 26.570896 1.269804 -0.737472 -18.507832 -8.397895 9.033906 8.669033 -1.063612 -1.559422 0.000002 0.000000 -0.000002 -8.295369 11.247227 -2.370756 -9.195492 5.349528 -11.068258 -11.322838 4.685324 -0.847211 -17.268786 13.909693 27.846174 -26.012758 -1.436907 -3.126851 11.704420 65.359658 -46.696258 -26.910833 0.679366 -0.602660 -6.680942 5.248258 -7.475502 -8.875374 -0.865171 -1.010707 -0.000001 -0.000001 -0.000003 
0.000000 0.000000 0.000000 -0.000009 -0.000009 -90.000207 33.946232 255.638229 -6.289680 125.458636 3.798800 88.747223 5.858131 -8.227995 -1.766416 -3.754412 1.067042 2.671638 4.345157 -38.646950 0.803710 12.949445 -5.003806 -1.727970 -1.479023 -42.687450 -3.742796 0.840647 11.736094 -8.166884 4.105431 -6.028596 12.204228 -10.609133 4.376200 12.999189 -6.030975 -9.051321 -1.354247 -2.694188 -2.853230 -0.816295 -4.325656 -38.368767 -0.484290 12.907476 3.733001 0.342073 1.905536 -42.004562 -3.456154 -2.270757 -13.438693 10.428788 -3.483980 -6.210557 13.032341 -6.173646 3.954046 -15.890478 0.443934 12.440346 -3.838536 5.676258 0.724481 0.591968 0.448849 13.795647 2.682027 -2.637500 -1.934256 -0.293858 -0.226470 5.603246 0.285505 3.253192 0.116785 1.090699 -1.339044 21.163540 -3.346759 -6.979661 2.504038 -1.645387 1.011300 8.893732 5.041013 -3.776831 2.207176 1.050824 7.170210 11.399965 -1.889826 -7.585211 -6.873596 7.781678 12.292158 4.520507 -1.904577 -19.044929 -15.244064 -27.317687 25.533188 -1.564910 -2.294660 -0.558424 -60.220446 31.643901 26.570934 1.269809 -0.737468 -12.080751 -7.776013 9.128291 8.669069 -1.063611 -1.559428 0.000001 0.000001 -0.000001 -8.295408 11.247221 -2.370731 -8.373047 9.340303 -9.689472 -11.322818 4.685343 -0.847237 -15.247754 17.479921 29.472649 -26.012747 -1.436932 -3.126879 12.026761 63.278513 -42.356547 -26.910866 0.679367 -0.602670 -7.529814 5.335615 -5.919045 -8.875381 -0.865129 -1.010686 0.000000 0.000000 -0.000000 
